<svg xmlns="http://www.w3.org/2000/svg" viewBox="0 0 400 400">
  <style>
    .bg { fill: #0a0a0a; }
    .outline { fill: none; stroke: #00ff8e; stroke-width: 2; }
    .accent { fill: none; stroke: #00ffff; stroke-width: 1.5; }
    .key-element { fill: none; stroke: #ff00ff; stroke-width: 1; }
    .fill-accent { fill: #00ff8e; filter: drop-shadow(0 0 5px #00ff8e); }
    .glitch-anim { animation: glitch 5s infinite alternate; }
    .float-anim { animation: float 8s infinite ease-in-out; }
    .pulse-anim { animation: pulse 2.5s infinite; }
    
    @keyframes glitch {
      0% { transform: translate(0); }
      20% { transform: translate(-3px, 3px); }
      40% { transform: translate(-3px, -3px); }
      60% { transform: translate(3px, 3px); }
      80% { transform: translate(3px, -3px); }
      100% { transform: translate(0); }
    }
    
    @keyframes float {
      0% { transform: translateY(0); }
      50% { transform: translateY(-8px); }
      100% { transform: translateY(0); }
    }
    
    @keyframes pulse {
      0% { opacity: 1; }
      50% { opacity: 0.6; }
      100% { opacity: 1; }
    }
  </style>

  <!-- Background -->
  <rect class="bg" x="0" y="0" width="400" height="400" />
  
  <!-- NFT border -->
  <rect x="20" y="20" width="360" height="360" rx="2" class="outline" />
  
  <!-- Security grid pattern -->
  <g opacity="0.15">
    <!-- Horizontal lines -->
    <path d="M40,40 H360 M40,80 H360 M40,120 H360 M40,160 H360 M40,200 H360 M40,240 H360 M40,280 H360 M40,320 H360 M40,360 H360" stroke="#00ffff" stroke-width="0.5" />
    <!-- Vertical lines -->
    <path d="M40,40 V360 M80,40 V360 M120,40 V360 M160,40 V360 M200,40 V360 M240,40 V360 M280,40 V360 M320,40 V360 M360,40 V360" stroke="#00ffff" stroke-width="0.5" />
    <!-- Security nodes -->
    <circle cx="80" cy="80" r="2" fill="#00ff8e" opacity="0.5" />
    <circle cx="160" cy="80" r="2" fill="#00ff8e" opacity="0.5" />
    <circle cx="240" cy="80" r="2" fill="#00ff8e" opacity="0.5" />
    <circle cx="320" cy="80" r="2" fill="#00ff8e" opacity="0.5" />
    <circle cx="120" cy="120" r="2" fill="#00ff8e" opacity="0.5" />
    <circle cx="200" cy="120" r="2" fill="#00ff8e" opacity="0.5" />
    <circle cx="280" cy="120" r="2" fill="#00ff8e" opacity="0.5" />
  </g>
  
  <!-- ELX-001 Defector NFT -->
  <g class="glitch-anim">
    <!-- Corporate security elements -->
    <rect x="120" y="80" width="160" height="240" rx="5" class="outline" />
    <path class="accent" d="M120,120 H280" />
    <path class="accent" d="M120,200 H280" />
    <path class="accent" d="M120,280 H280" />
    
    <!-- Defector badge -->
    <rect x="180" y="140" width="40" height="20" class="key-element" />
    <line x1="200" y1="140" x2="200" y2="160" class="key-element" />
    <circle cx="190" cy="150" r="3" class="fill-accent" />
    <circle cx="210" cy="150" r="3" class="fill-accent" />
    
    <!-- Encryption Key -->
    <g class="float-anim">
      <path class="accent" d="M170,240 L170,260 L230,260 L230,240" />
      <path class="accent" d="M200,220 L200,280" />
      <circle cx="200" cy="260" r="15" class="accent" />
      <path class="key-element" d="M190,260 H210" />
      <path class="key-element" d="M200,250 L200,270" />
    </g>
    
    <!-- Signal interception -->
    <path class="outline" d="M100,60 L300,60 L300,340 L100,340 Z" stroke-dasharray="5,3" />
    
    <!-- Security breach visualization -->
    <path class="key-element" d="M140,200 L160,200" stroke-dasharray="3,2" />
    <path class="key-element" d="M240,200 L260,200" stroke-dasharray="3,2" />
    <path class="key-element" d="M200,160 L200,180" stroke-dasharray="3,2" />
    <path class="key-element" d="M200,220 L200,240" stroke-dasharray="3,2" />
    
    <!-- Defector signature -->
    <circle cx="200" cy="200" r="30" class="outline pulse-anim" />
    <circle cx="200" cy="200" r="20" class="accent" />
    <circle cx="200" cy="200" r="10" class="fill-accent" />
    
    <!-- Distributed key packets -->
    <circle cx="160" cy="320" r="6" class="fill-accent" />
    <circle cx="200" cy="320" r="6" class="fill-accent" />
    <circle cx="240" cy="320" r="6" class="fill-accent" />
    <path class="key-element" d="M160,320 L200,320 L240,320" />
  </g>
  
  <!-- NFT identifier -->
  <g transform="translate(0, 380)">
    <rect x="150" y="0" width="100" height="20" fill="rgba(0,0,0,0.8)" />
    <text x="200" y="15" font-family="'Courier New', monospace" font-size="14" fill="#00ff8e" text-anchor="middle">ELX-001</text>
  </g>
</svg>
