<?xml version="1.0" encoding="UTF-8" standalone="no"?>
<svg width="500" height="500" viewBox="0 0 500 500" xmlns="http://www.w3.org/2000/svg">
  <!-- Background with cyberpunk gradient -->
  <defs>
    <linearGradient id="cyberpunkGradient" x1="0%" y1="0%" x2="100%" y2="100%">
      <stop offset="0%" style="stop-color:#120458;stop-opacity:1" />
      <stop offset="50%" style="stop-color:#4d0f8e;stop-opacity:1" />
      <stop offset="100%" style="stop-color:#ff00c3;stop-opacity:1" />
    </linearGradient>
    
    <!-- Glitch filter -->
    <filter id="glitchFilter" x="-20%" y="-20%" width="140%" height="140%">
      <feTurbulence type="fractalNoise" baseFrequency="0.05" numOctaves="2" result="noise" seed="100" />
      <feDisplacementMap in="SourceGraphic" in2="noise" scale="10" xChannelSelector="R" yChannelSelector="G" result="glitch1" />
    </filter>
    
    <!-- Noise texture -->
    <filter id="noiseFilter" x="0%" y="0%" width="100%" height="100%">
      <feTurbulence type="fractalNoise" baseFrequency="0.65" numOctaves="3" stitchTiles="stitch" />
      <feComponentTransfer>
        <feFuncR type="discrete" tableValues="0 0 0 0 0 0 0 0 0.5 1" />
        <feFuncG type="discrete" tableValues="0 0 0.1 0.2 0.3 0.4 0.5 0.6 0.7 0.8" />
        <feFuncB type="discrete" tableValues="0 0.5 0.1 0.9 0.5 0 0.7 0.1 0 0.3" />
      </feComponentTransfer>
    </filter>
    
    <!-- Glow effect -->
    <filter id="glowEffect" x="-50%" y="-50%" width="200%" height="200%">
      <feGaussianBlur stdDeviation="10" result="blur" />
      <feColorMatrix in="blur" mode="matrix" values="1 0 0 0 0  0 1 0 0 0  0 0 1 0 0  0 0 0 15 -5" result="glow" />
      <feComposite in="SourceGraphic" in2="glow" operator="over" />
    </filter>
  </defs>
  
  <!-- Main background -->
  <rect width="500" height="500" fill="url(#cyberpunkGradient)" />
  
  <!-- Noise overlay -->
  <rect width="500" height="500" fill="rgba(255,255,255,0.05)" filter="url(#noiseFilter)" opacity="0.15" />
  
  <!-- Glitch circle -->
  <circle cx="250" cy="250" r="150" fill="none" stroke="#00ffff" stroke-width="4" filter="url(#glitchFilter)" />
  
  <!-- Symbol -->
  <g transform="translate(250, 250)" filter="url(#glowEffect)">
    <polygon points="-80,0 -40,-60 40,-60 80,0 40,60 -40,60" fill="none" stroke="#ff00ff" stroke-width="5" />
    <circle cx="0" cy="0" r="30" fill="none" stroke="#00ffff" stroke-width="5" />
    <line x1="-100" y1="0" x2="100" y2="0" stroke="#00ffff" stroke-width="3" />
    <line x1="0" y1="-100" x2="0" y2="100" stroke="#ff00ff" stroke-width="3" />
  </g>
  
  <!-- Grid lines for cyberpunk feel -->
  <g stroke="#ff00ff" stroke-width="1" opacity="0.3">
    <line x1="0" y1="100" x2="500" y2="100" />
    <line x1="0" y1="200" x2="500" y2="200" />
    <line x1="0" y1="300" x2="500" y2="300" />
    <line x1="0" y1="400" x2="500" y2="400" />
    <line x1="100" y1="0" x2="100" y2="500" />
    <line x1="200" y1="0" x2="200" y2="500" />
    <line x1="300" y1="0" x2="300" y2="500" />
    <line x1="400" y1="0" x2="400" y2="500" />
  </g>
  
  <!-- Text placeholder -->
  <text x="250" y="420" font-family="'Courier New', monospace" font-weight="bold" font-size="24" fill="#ffffff" text-anchor="middle" filter="url(#glitchFilter)">SPNK NFT</text>
</svg>