<svg xmlns="http://www.w3.org/2000/svg" viewBox="0 0 400 400">
  <style>
    .bg { fill: #0a0a0a; }
    .outline { fill: none; stroke: #ff00ff; stroke-width: 2; }
    .accent { fill: none; stroke: #00ffff; stroke-width: 1.5; }
    .minor { fill: none; stroke: #00ff8e; stroke-width: 1; }
    .fill-neon { fill: #ff00ff; filter: drop-shadow(0 0 5px #ff00ff); }
    .glitch-anim { animation: glitch 4s infinite alternate; }
    .rotate-anim { animation: rotate 20s infinite linear; }
    .pulse-anim { animation: pulse 3s infinite; }
    
    @keyframes glitch {
      0% { transform: translate(0); }
      20% { transform: translate(-3px, 3px); }
      40% { transform: translate(-3px, -3px); }
      60% { transform: translate(3px, 3px); }
      80% { transform: translate(3px, -3px); }
      100% { transform: translate(0); }
    }
    
    @keyframes rotate {
      from { transform: rotate(0deg); }
      to { transform: rotate(360deg); }
    }
    
    @keyframes pulse {
      0% { opacity: 1; stroke-width: 2; }
      50% { opacity: 0.7; stroke-width: 1.5; }
      100% { opacity: 1; stroke-width: 2; }
    }
  </style>

  <!-- Background -->
  <rect class="bg" x="0" y="0" width="400" height="400" />
  
  <!-- NFT border -->
  <rect x="20" y="20" width="360" height="360" rx="2" class="outline pulse-anim" />
  
  <!-- Grid pattern -->
  <g opacity="0.2">
    <path d="M50,50 H350 M50,100 H350 M50,150 H350 M50,200 H350 M50,250 H350 M50,300 H350 M50,350 H350" stroke="#00ffff" stroke-width="0.5" />
    <path d="M50,50 V350 M100,50 V350 M150,50 V350 M200,50 V350 M250,50 V350 M300,50 V350 M350,50 V350" stroke="#00ffff" stroke-width="0.5" />
  </g>
  
  <!-- VX-311 Reality Bender Entity -->
  <g class="glitch-anim">
    <!-- Central core -->
    <circle cx="200" cy="200" r="80" class="outline" />
    <circle cx="200" cy="200" r="70" class="accent" />
    <circle cx="200" cy="200" r="60" class="minor" />
    
    <!-- Reality bending elements -->
    <g class="rotate-anim">
      <path class="accent" d="M200,120 L200,60" />
      <path class="accent" d="M200,280 L200,340" />
      <path class="accent" d="M120,200 L60,200" />
      <path class="accent" d="M280,200 L340,200" />
      
      <path class="accent" d="M160,140 L100,80" />
      <path class="accent" d="M240,140 L300,80" />
      <path class="accent" d="M160,260 L100,320" />
      <path class="accent" d="M240,260 L300,320" />
      
      <!-- Reality warping nodes -->
      <circle cx="200" cy="60" r="10" class="fill-neon" />
      <circle cx="200" cy="340" r="10" class="fill-neon" />
      <circle cx="60" cy="200" r="10" class="fill-neon" />
      <circle cx="340" cy="200" r="10" class="fill-neon" />
      
      <circle cx="100" cy="80" r="8" class="fill-neon" />
      <circle cx="300" cy="80" r="8" class="fill-neon" />
      <circle cx="100" cy="320" r="8" class="fill-neon" />
      <circle cx="300" cy="320" r="8" class="fill-neon" />
    </g>
    
    <!-- Inner components -->
    <path class="minor" d="M170,170 L230,170 L230,230 L170,230 Z" />
    <path class="minor" d="M185,185 L215,185 L215,215 L185,215 Z" />
    <circle cx="200" cy="200" r="5" class="fill-neon pulse-anim" />
    
    <!-- Distortion points -->
    <path class="accent" d="M160,160 C150,170 150,190 160,200" />
    <path class="accent" d="M240,160 C250,170 250,190 240,200" />
    <path class="accent" d="M160,240 C150,230 150,210 160,200" />
    <path class="accent" d="M240,240 C250,230 250,210 240,200" />
  </g>
  
  <!-- NFT identifier -->
  <g transform="translate(0, 380)">
    <rect x="150" y="0" width="100" height="20" fill="rgba(0,0,0,0.8)" />
    <text x="200" y="15" font-family="'Courier New', monospace" font-size="14" fill="#ff00ff" text-anchor="middle">VX-311</text>
  </g>
</svg>
